<svg baseProfile="tiny" xmlns="http://www.w3.org/2000/svg" x="0px" y="0px" viewBox="0 0 650 340">
<g display="none">
	<rect x="50.6" y="37.3" display="inline" fill="#00B300" width="548.9" height="257.3"/>
</g>
<path fill="#00B900" d="M508,178.5c-1.8,0-2.5,0.6-3.2,2.2c0,0-13.3,31.9-13.7,33.1c-0.5,1.2-1.4,2.2-2.9,2.2c-1.1,0-2.2-0.3-3.1-2
	l-15.7-33.8c-0.5-1-1.1-1.6-2.6-1.6h-23.9l31.4,66.7c0.6,1.2,0.8,2.5,0.2,4l-15.4,36.3H482c1.8,0,2.6-0.4,3.4-2l46-105H508z
	 M308,228.6c-4.6-7.9-4-19.7,0-26.5c3.2-5.5,8.7-6.8,14.6-6c5.5,0.7,8.9,4.2,10.8,9.2c2.4,6.4,1.7,17.8-1,22.7
	c-2.5,4.6-7.6,6.9-12.6,6.9C315.1,234.9,310.5,232.8,308,228.6 M327,174.8c-0.8,0-1.6,0-2.4,0.1c-6.2,0.3-11.8,2.3-15.8,7.3
	c-1.2,1.5-2.4,1.6-4.2,1.2v-6.6h-25v106.8h25.8v-36.1c2.1-0.6,3.2,0,4.3,1.4c2.1,2.8,5,4.6,8.3,5.6c12.8,3.9,28.4,0,36.5-13.6
	c7.6-12.8,8.2-31.5,3.5-43.7C352.6,182.8,341.8,174.8,327,174.8C327,174.8,327,174.8,327,174.8 M396.2,235.8c-2.7-1.2-4.4-4-4.4-7.3
	c0-3,1.3-5.1,3.8-6.8c1.9-1.3,4.4-1.7,6.5-1.8c4.6-0.3,14.2-0.1,14.2-0.1c0.3,5.7,0.1,11.1-4.9,14.7c-2.7,1.9-5.6,2.7-8.5,2.7
	C400.5,237.2,398.2,236.7,396.2,235.8 M388.5,177.5c-7.4,2.3-13.4,6.6-16.6,13.9c-1.2,2.6-2.2,6.6-2.4,8.5h25.8
	c2.1-5.6,7.4-7.9,14.5-6.1c4.6,1.1,6.9,4.9,6.3,10.7c-5.5,0-10.9,0-16.2,0c-6.4,0.1-12.8,0.6-18.8,3.3c-19.2,8.5-18.9,31.4-6.7,41.9
	c5.9,5.1,12.9,6.7,20.6,6.6c6.8-0.1,12.4-2,17.6-6.5c1.6-1.3,2.7-2.1,4.8-1.3v5.9h23.8c0,0,0-32.8,0-48.2c0-2.1-0.1-4.3-0.4-6.4
	c-1.3-10.2-6.4-17.7-16.2-21.3c-6.3-2.3-12.7-3.5-19.1-3.5C399.8,174.8,394.1,175.7,388.5,177.5 M84.8,100.9h147.4v83.7H84.8V100.9z
	 M72.8,75.8c-7.2,0-13.1,5.9-13.1,13.1v107.7c0,7.2,5.9,13.1,13.1,13.1h171.4c7.2,0,13.1-5.9,13.1-13.1V88.9
	c0-7.2-5.9-13.1-13.1-13.1H72.8z M488.1,77.3c-4.2,0.7-7.8,2.7-10.5,6c-1.2,1.5-2.3,2.1-4.3,1.4v-8.4h-25v77.2h25.8
	c0,0-0.1-23.8,0.2-34.3c0.3-11.3,6.4-17.7,17.6-18.9c3.8-0.4,7.8-0.4,11.5-0.6v-24C497.7,76.1,493.1,76.4,488.1,77.3 M308.9,74.6
	c-13.6,2-23.7,8.8-29.3,21.6c-3.6,8.4-4.2,17.1-3,26c1.8,12.6,7.7,22.7,19.4,28.6c9.2,4.6,19,5.4,29.1,3.6c9.2-1.7,16.9-6,22.4-13.7
	c3.1-4.4,5-9.4,5.3-14.9h-24.1c-0.9,0-1.4,0.5-1.8,1.4c-0.7,1.8-1.7,3.6-3.1,4.8c-4.4,3.6-15.2,3.7-19.1-4.3
	c-3.8-7.8-3.8-15.9-0.9-23.8c2.8-7.8,9.5-9.7,16.7-7.9c2.6,0.6,4.5,2.2,5.5,4.7c0.5,1.3,1.3,1.7,2.8,1.7l23.2,0
	c-0.7-9.4-6-17.8-14.3-22.6c-6.7-3.9-13.7-5.5-21-5.5C314.1,74,311.5,74.2,308.9,74.6 M390.7,135c-2.7-1.2-4.4-4-4.4-7.3
	c0-3,1.3-5.1,3.8-6.8c1.9-1.3,4.4-1.7,6.5-1.8c4.6-0.3,14.2-0.1,14.2-0.1c0.3,5.7,0.1,11.1-4.9,14.7c-2.7,1.9-5.6,2.7-8.5,2.7
	C395,136.4,392.7,135.9,390.7,135 M383,76.7c-7.4,2.3-13.4,6.6-16.6,13.9c-1.2,2.6-2.2,6.6-2.4,8.5h25.8c2.1-5.6,7.4-7.8,14.5-6.1
	c4.6,1.1,6.9,4.9,6.3,10.7c-5.5,0-10.9,0-16.2,0c-6.4,0.1-12.8,0.6-18.8,3.3c-19.2,8.5-18.9,31.4-6.7,41.9
	c5.9,5.1,12.9,6.7,20.6,6.6c6.8-0.1,12.4-2,17.6-6.5c1.6-1.3,2.7-2.1,4.8-1.3v5.9h23.8c0,0,0-32.8,0-48.2c0-2.1-0.1-4.3-0.4-6.4
	c-1.3-10.2-6.4-17.7-16.2-21.3c-6.3-2.3-12.7-3.5-19.1-3.5C394.3,74,388.6,74.9,383,76.7 M537.2,127.3c-3.1-7.3-3-16.6,0-23.1
	c2.8-5.9,6.9-7.8,12.7-7.8c6.1,0,10.8,2.6,13.2,8.2c3.4,7.7,3.4,15.6-0.5,23.2c-2.6,5.2-7.2,7.4-12.8,7.4c0,0,0,0-0.1,0
	C544.1,135.3,539.5,132.8,537.2,127.3 M564.4,46.5v37.3c-2.2,0-3.4-0.3-4.8-2.1c-2.3-2.7-4.4-4.2-7.8-5.2
	c-15.2-4.7-31.5,2.5-38.2,17.1c-5.8,12.6-6.1,25.7-2.2,38.8c4.6,15.1,15.8,23.5,30.9,23.8c7.2,0.2,14-1.4,18.9-7.3
	c1.2-1.5,2.4-1.5,4.2-1.2v6.5h24.9V46.5H564.4z"/>
<rect x="156" y="16" fill="#FF4217" width="6" height="269"/>
</svg>
