<svg width="23" height="16" viewBox="0 0 23 16" fill="none" xmlns="http://www.w3.org/2000/svg">
<g clip-path="url(#clip0)">
<rect width="23" height="16" fill="white"/>
<path d="M5.96247 10.0804C7.10634 10.0804 8.07864 9.68007 8.87936 8.87936C9.68007 8.07864 10.0804 7.10634 10.0804 5.96247C10.0804 4.81859 9.68007 3.84629 8.87936 3.04558C8.07864 2.24486 7.10634 1.8445 5.96247 1.8445C4.81859 1.8445 3.84629 2.24486 3.04558 3.04558C2.24486 3.84629 1.8445 4.81859 1.8445 5.96247C1.8445 7.10634 2.24486 8.07864 3.04558 8.87936C3.84629 9.68007 4.81859 10.0804 5.96247 10.0804ZM11.4531 10.0804L16 14.6273L14.6273 16L10.0804 11.4531V10.7239L9.82306 10.4665C8.73637 11.4102 7.44951 11.882 5.96247 11.882C4.30384 11.882 2.89544 11.3101 1.73727 10.1662C0.579089 9.02234 0 7.62109 0 5.96247C0 4.30384 0.579089 2.89544 1.73727 1.73727C2.89544 0.579089 4.30384 1.83021e-07 5.96247 1.83021e-07C7.62109 1.83021e-07 9.02234 0.579089 10.1662 1.73727C11.3101 2.89544 11.882 4.30384 11.882 5.96247C11.882 7.44951 11.4102 8.73637 10.4665 9.82306L10.7239 10.0804H11.4531Z" transform="translate(4)" fill="#D8DFE6"/>
</g>
<defs>
<clipPath id="clip0">
<rect width="23" height="16" fill="white"/>
</clipPath>
</defs>
</svg>
